HIERARCHY
ROOT Hips
{
	OFFSET 0.00 0.00 0.00
	CHANNELS 6 Xposition Yposition Zposition Zrotation Yrotation Xrotation
	JOINT Spine
	{
		OFFSET	-0.0066	10.8226	-0.4307
		CHANNELS 3 Zrotation Yrotation Xrotation
		JOINT Spine1
		{
			OFFSET	0.0000	12.6263	-0.2112
			CHANNELS 3 Zrotation Yrotation Xrotation
			JOINT Spine2
			{
				OFFSET	0.0000	14.4301	0.0000
				CHANNELS 3 Zrotation Yrotation Xrotation
				JOINT Neck
				{
					OFFSET	0.0000	16.2338	0.0000
					CHANNELS 3 Zrotation Yrotation Xrotation
					JOINT Head
					{
						OFFSET	0.0000	6.7614	0.0000
						CHANNELS 3 Zrotation Yrotation Xrotation
						End Site
						{
							OFFSET 0.0000 23.0037 2.4456
						}
					}
				}
				JOINT LeftShoulder
				{
					OFFSET	10.9527	13.3171	-1.4436
					CHANNELS 3 Zrotation Yrotation Xrotation
					JOINT LeftArm
					{
						OFFSET	12.5621	-10.8187	0.1359
						CHANNELS 3 Zrotation Yrotation Xrotation
						JOINT LeftForeArm
						{
							OFFSET	18.8844	-21.6036	-1.0453
							CHANNELS 3 Zrotation Yrotation Xrotation
							JOINT LeftHand
							{
								OFFSET	13.3138	-14.1460	5.6551
								CHANNELS 3 Zrotation Yrotation Xrotation
								JOINT LeftHandThumb1
								{
									OFFSET	-0.2234	-4.5184	5.7249
									CHANNELS 3 Zrotation Yrotation Xrotation
									JOINT LeftHandThumb2
									{
										OFFSET	-0.1787	-3.6147	4.5798
										CHANNELS 3 Zrotation Yrotation Xrotation
										JOINT LeftHandThumb3
										{
											OFFSET	0.3288	-5.9239	3.0121
											CHANNELS 3 Zrotation Yrotation Xrotation
											End Site
											{
												OFFSET 0.7426 -5.8978 -0.2421
											}
										}
									}
								}
								JOINT LeftHandIndex1
								{
									OFFSET	9.9406	-11.6381	6.4224
									CHANNELS 3 Zrotation Yrotation Xrotation
									JOINT LeftHandIndex2
									{
										OFFSET	3.7566	-3.9716	0.6536
										CHANNELS 3 Zrotation Yrotation Xrotation
										JOINT LeftHandIndex3
										{
											OFFSET	0.1239	-4.1016	0.5838
											CHANNELS 3 Zrotation Yrotation Xrotation
											End Site
											{
												OFFSET -0.5425 -5.8416 0.4926
											}
										}
									}
								}
								JOINT LeftHandMiddle1
								{
									OFFSET	9.7285	-13.5636	1.1502
									CHANNELS 3 Zrotation Yrotation Xrotation
									JOINT LeftHandMiddle2
									{
										OFFSET	3.6112	-4.6700	-0.0223
										CHANNELS 3 Zrotation Yrotation Xrotation
										JOINT LeftHandMiddle3
										{
											OFFSET	-0.9717	-4.4064	0.5814
											CHANNELS 3 Zrotation Yrotation Xrotation
											End Site
											{
												OFFSET -0.5473 -6.5481 0.5540
											}
										}
									}
								}
								JOINT LeftHandRing1
								{
									OFFSET	7.3735	-14.4731	-3.1009
									CHANNELS 3 Zrotation Yrotation Xrotation
									JOINT LeftHandRing2
									{
										OFFSET	3.1552	-4.3381	-0.6877
										CHANNELS 3 Zrotation Yrotation Xrotation
										JOINT LeftHandRing3
										{
											OFFSET	-0.6730	-3.8541	0.3914
											CHANNELS 3 Zrotation Yrotation Xrotation
											End Site
											{
												OFFSET -1.3498 -5.2602 0.6271
											}
										}
									}
								}
								JOINT LeftHandPinky1
								{
									OFFSET	4.8259	-14.8922	-6.2759
									CHANNELS 3 Zrotation Yrotation Xrotation
									JOINT LeftHandPinky2
									{
										OFFSET	1.6777	-3.4757	-0.9769
										CHANNELS 3 Zrotation Yrotation Xrotation
										JOINT LeftHandPinky3
										{
											OFFSET	-0.4572	-2.7695	-0.0728
											CHANNELS 3 Zrotation Yrotation Xrotation
											End Site
											{
												OFFSET -1.7306 -3.7265 0.8577
											}
										}
									}
								}
							}
						}
					}
				}
				JOINT RightShoulder
				{
					OFFSET	-10.9527	13.3171	-1.4436
					CHANNELS 3 Zrotation Yrotation Xrotation
					JOINT RightArm
					{
						OFFSET	-12.5621	-10.8187	0.1359
						CHANNELS 3 Zrotation Yrotation Xrotation
						JOINT RightForeArm
						{
							OFFSET	-12.9927	-15.1138	-1.1998
							CHANNELS 3 Zrotation Yrotation Xrotation
							JOINT RightHand
							{
								OFFSET	-19.2055	-20.6359	5.8096
								CHANNELS 3 Zrotation Yrotation Xrotation
								JOINT RightHandIndex1
								{
									OFFSET	-11.7773	-11.2003	3.5246
									CHANNELS 3 Zrotation Yrotation Xrotation
									JOINT RightHandIndex2
									{
										OFFSET	-1.8031	-2.3101	0.8667
										CHANNELS 3 Zrotation Yrotation Xrotation
										JOINT RightHandIndex3
										{
											OFFSET	-0.9561	-2.4372	0.8479
											CHANNELS 3 Zrotation Yrotation Xrotation
											End Site
											{
												OFFSET -0.3592 -3.3007 1.2418
											}
										}
									}
								}
								JOINT RightHandMiddle1
								{
									OFFSET	-11.1069	-12.6853	0.1207
									CHANNELS 3 Zrotation Yrotation Xrotation
									JOINT RightHandMiddle2
									{
										OFFSET	-1.4413	-2.9544	0.4089
										CHANNELS 3 Zrotation Yrotation Xrotation
										JOINT RightHandMiddle3
										{
											OFFSET	-0.5774	-2.5977	0.3048
											CHANNELS 3 Zrotation Yrotation Xrotation
											End Site
											{
												OFFSET -0.3601 -3.5348 0.4882
											}
										}
									}
								}
								JOINT RightHandRing1
								{
									OFFSET	-9.8468	-13.0073	-3.1392
									CHANNELS 3 Zrotation Yrotation Xrotation
									JOINT RightHandRing2
									{
										OFFSET	-0.6811	-2.8000	-0.1504
										CHANNELS 3 Zrotation Yrotation Xrotation
										JOINT RightHandRing3
										{
											OFFSET	-0.4028	-2.2868	-0.2694
											CHANNELS 3 Zrotation Yrotation Xrotation
											End Site
											{
												OFFSET 0.1853 -3.2500 0.2083
											}
										}
									}
								}
								JOINT RightHandPinky1
								{
									OFFSET	-7.8050	-12.5466	-5.9736
									CHANNELS 3 Zrotation Yrotation Xrotation
									JOINT RightHandPinky2
									{
										OFFSET	0.0105	-2.2470	-0.3620
										CHANNELS 3 Zrotation Yrotation Xrotation
										JOINT RightHandPinky3
										{
											OFFSET	0.2970	-1.8184	-0.0591
											CHANNELS 3 Zrotation Yrotation Xrotation
											End Site
											{
												OFFSET -0.0337 -2.1669 -0.2214
											}
										}
									}
								}
								JOINT RightHandThumb1
								{
									OFFSET	-1.4515	-3.9395	1.6913
									CHANNELS 3 Zrotation Yrotation Xrotation
									JOINT RightHandThumb2
									{
										OFFSET	-1.1612	-3.1516	3.3390
										CHANNELS 3 Zrotation Yrotation Xrotation
										JOINT RightHandThumb3
										{
											OFFSET	-0.2119	-3.9644	3.2468
											CHANNELS 3 Zrotation Yrotation Xrotation
											End Site
											{
												OFFSET -0.4081 -3.7882 1.9049
											}
										}
									}
								}
							}
						}
					}
				}
			}
		}
	}
	JOINT LeftUpLeg
	{
		OFFSET	13.2805	-6.0125	-0.5314
		CHANNELS 3 Zrotation Yrotation Xrotation
		JOINT LeftLeg
		{
			OFFSET	0.4217	-52.0404	1.5006
			CHANNELS 3 Zrotation Yrotation Xrotation
			JOINT LeftFoot
			{
				OFFSET	0.2212	-50.8660	-3.6051
				CHANNELS 3 Zrotation Yrotation Xrotation
				JOINT LeftToeBase
				{
					OFFSET	2.8257	-10.2731	19.2966
					CHANNELS 3 Zrotation Yrotation Xrotation
					End Site
					{
						OFFSET 0.8536 0.3355 9.0832
					}
				}
			}
		}
	}
	JOINT RightUpLeg
	{
		OFFSET	-13.2937	-6.0125	-0.5314
		CHANNELS 3 Zrotation Yrotation Xrotation
		JOINT RightLeg
		{
			OFFSET	-0.4217	-52.0404	1.5006
			CHANNELS 3 Zrotation Yrotation Xrotation
			JOINT RightFoot
			{
				OFFSET	-0.2212	-50.8660	-3.6051
				CHANNELS 3 Zrotation Yrotation Xrotation
				JOINT RightToeBase
				{
					OFFSET	-2.8257	-10.2731	19.2966
					CHANNELS 3 Zrotation Yrotation Xrotation
					End Site
					{
						OFFSET -0.8536 0.3355 9.0832
					}
				}
			}
		}
	}
}
MOTION
Frames: 8
Frame Time: 0.0333333
-0.1426 117.0999 0.7536 -1.1707 -0.1320 -1.5187 0.1198 -0.1349 0.9679 0.1021 -2.4805 1.0155 0.1456 -2.4776 1.0086 -1.4682 0.8106 -2.7715 3.5307 -1.8728 5.4707 10.8633 7.3168 1.0399 -38.4395 -29.8992 17.8545 3.2072 -6.5621 -8.3234 -7.4407 -19.8097 16.1467 13.4414 28.5701 19.6573 -2.0247 -6.1069 -8.4015 -0.5745 -2.9015 -26.2605 -26.9796 -5.7550 -1.5043 7.2191 -2.0167 -8.8814 -9.8293 -1.5235 -7.3290 -26.8926 -11.1029 -8.4503 26.8437 3.5387 0.6122 -21.8293 -2.5805 -6.1268 -29.2222 -17.4719 -16.5441 29.4744 -0.6527 7.1110 -5.9467 -0.1825 -2.8931 -32.7282 -20.8357 -22.4576 16.4538 -3.1377 0.7362 8.1286 -2.9324 9.6818 -14.9637 2.5931 0.3359 38.5310 26.3335 6.5650 1.5998 8.1835 -8.8153 1.8386 12.3854 15.9735 7.7651 -10.2893 13.3125 21.1114 9.2514 -0.7469 -5.9926 -2.3560 1.1385 6.3703 -2.5352 5.6205 14.9313 4.8475 -5.5830 -1.1540 -1.7659 -0.0177 1.5235 4.8359 -8.1397 17.4920 1.9793 -9.4554 -5.2204 -1.8064 8.0140 -3.9657 6.6955 -15.2375 7.4407 -0.6870 1.6968 17.5524 -0.6507 -6.5823 -4.1629 -13.8808 31.1504 -10.5916 -2.6062 -4.7825 -0.9752 0.6437 -13.9988 2.1252 4.3595 -9.3043 4.5393 8.3438 24.4726 -4.1643 1.7925 -12.8708 0.0000 0.0000 -0.4642 -3.8901 -14.1435 -8.9548 -2.6667 -3.6292 20.0375 6.9350 -3.4937 -7.8521 -0.0000 -0.0000 -0.0001 
0.0710 117.0457 0.7103 -1.2724 -0.1504 -1.5410 0.1143 -0.1203 1.0054 0.0869 -2.4608 1.0860 0.1318 -2.4581 1.0796 -1.4175 0.7921 -2.7398 3.5759 -1.8894 5.4252 10.9237 7.1768 1.0300 -38.5200 -30.0330 17.8716 3.2016 -6.5487 -8.3063 -7.4732 -19.8632 16.1877 13.4509 28.5752 19.6675 -2.0266 -6.0983 -8.4118 -0.5758 -2.9022 -26.2618 -27.0840 -5.7855 -1.5090 7.3973 -1.9609 -8.8414 -9.7388 -1.5062 -7.3088 -26.9896 -11.1522 -8.4807 26.9695 3.5462 0.6544 -21.7662 -2.5698 -6.1122 -29.2649 -17.5267 -16.6053 29.5257 -0.6573 7.1296 -5.9184 -0.1804 -2.8827 -32.8019 -20.9088 -22.5581 16.4538 -3.1376 0.7362 8.1276 -2.9323 9.6813 -14.8150 2.8410 0.3248 38.4208 26.4197 6.5573 1.5933 8.2238 -8.8601 1.7630 12.3939 15.9224 7.8055 -10.2494 13.2633 21.0947 9.2451 -0.7489 -6.0416 -2.3736 1.1426 6.5243 -2.4718 5.5295 14.8582 4.8285 -5.5751 -1.2368 -1.7967 -0.0032 1.5975 4.8743 -8.2502 17.4172 1.9717 -9.4353 -5.2754 -1.8112 8.0305 -3.8225 6.7220 -15.3878 7.4171 -0.6841 1.7051 17.4521 -0.6525 -6.5475 -4.2895 -13.9080 31.1880 -10.5581 -2.6312 -4.8459 -0.9715 0.6461 -13.9988 2.1371 4.4098 -9.4736 4.5203 8.2820 24.8267 -4.0513 1.8263 -13.0640 0.0000 0.0000 -0.4458 -3.8772 -14.2464 -8.9967 -2.7345 -3.6356 20.0965 7.0466 -3.3544 -7.8015 -0.0000 -0.0000 -0.0000 
0.2778 117.0037 0.6957 -1.3655 -0.1577 -1.5672 0.1069 -0.1053 1.0376 0.0694 -2.4364 1.1479 0.1156 -2.4338 1.1421 -1.3728 0.7769 -2.6851 3.6188 -1.9065 5.4252 10.9628 7.1146 1.0269 -38.5377 -30.0828 17.8597 3.1941 -6.5307 -8.2834 -7.4880 -19.9210 16.2453 13.4595 28.5798 19.6783 -2.0282 -6.0884 -8.4234 -0.5764 -2.9029 -26.2668 -27.1881 -5.8136 -1.5111 7.5609 -1.9098 -8.8045 -9.6551 -1.4902 -7.2902 -27.0995 -11.2044 -8.5102 27.0850 3.5531 0.6932 -21.7077 -2.5598 -6.0987 -29.3263 -17.5871 -16.6668 29.5723 -0.6614 7.1466 -5.8919 -0.1784 -2.8730 -32.9171 -20.9961 -22.6604 16.4538 -3.1377 0.7362 8.1269 -2.9322 9.6810 -14.7414 2.9889 0.3172 38.4250 26.4889 6.5795 1.5899 8.2455 -8.8842 1.7045 12.3142 15.7726 7.9185 -10.2204 13.2358 21.0420 9.2253 -0.7549 -6.1273 -2.4042 1.1499 6.5270 -2.4577 5.5024 14.8861 4.8357 -5.5781 -1.3159 -1.8000 0.0128 1.5432 4.8776 -8.2935 17.5014 1.9802 -9.4579 -5.3063 -1.7923 8.0390 -3.8459 6.7190 -15.4588 7.5008 -0.6940 1.6757 17.4065 -0.6533 -6.5316 -4.3729 -13.9243 31.2216 -10.5318 -2.6503 -4.8950 -0.9696 0.6475 -14.0002 2.1489 4.4555 -9.5891 4.4745 8.2125 25.1085 -3.9320 1.8718 -13.2375 -0.0000 0.0000 -0.4395 -3.8750 -14.3376 -8.9894 -2.8062 -3.6633 20.1042 7.1620 -3.2169 -7.7424 0.0000 -0.0000 -0.0000 
0.4621 116.9966 0.7600 -1.4289 -0.1365 -1.6123 0.0946 -0.0909 1.0571 0.0448 -2.4013 1.1896 0.0922 -2.3989 1.1848 -1.3556 0.7739 -2.5682 3.6564 -1.9236 5.5316 10.9672 7.0968 1.0264 -38.4956 -30.0824 17.8326 3.1852 -6.5092 -8.2559 -7.4942 -19.9690 16.3140 13.4656 28.5830 19.6884 -2.0289 -6.0755 -8.4374 -0.5753 -2.9040 -26.2819 -27.2375 -5.8249 -1.5099 7.6353 -1.8866 -8.7876 -9.6169 -1.4829 -7.2816 -27.1950 -11.2495 -8.5355 27.1377 3.5562 0.7109 -21.6810 -2.5553 -6.0925 -29.4125 -17.6494 -16.7207 29.5925 -0.6632 7.1538 -5.8791 -0.1774 -2.8683 -33.1083 -21.1021 -22.7506 16.4538 -3.1377 0.7362 8.1270 -2.9322 9.6810 -14.7101 3.0760 0.3124 38.5032 26.5536 6.6358 1.5873 8.2619 -8.9024 1.6603 12.1832 15.5697 8.2230 -10.2225 13.2697 20.8877 9.1672 -0.7724 -6.3086 -2.4691 1.1654 6.0138 -2.5985 5.6669 15.2355 4.9269 -5.6161 -1.3680 -1.7142 0.0301 1.0669 4.7730 -8.1425 18.0809 2.0395 -9.6134 -5.2583 -1.6980 8.0213 -4.4197 6.6204 -15.2972 7.9232 -0.7429 1.5274 17.5328 -0.6511 -6.5755 -4.3069 -13.9304 31.1696 -10.5570 -2.6117 -4.8225 -0.9698 0.6444 -13.9719 2.1603 4.4591 -9.5482 4.3599 8.1435 25.1953 -3.8010 1.9517 -13.3575 -0.0000 0.0000 -0.4544 -3.9088 -14.3849 -8.8403 -2.8856 -3.7444 19.9759 7.2879 -3.0976 -7.6662 -0.0000 -0.0000 -0.0001 
0.6315 116.9785 0.8253 -1.4812 -0.1085 -1.6677 0.0778 -0.0768 1.0791 0.0148 -2.3686 1.2363 0.0637 -2.3663 1.2325 -1.3460 0.7732 -2.4348 3.6998 -1.9417 5.6101 10.9498 7.0802 1.0241 -38.4130 -30.0246 17.7911 3.1743 -6.4829 -8.2225 -7.4873 -19.9966 16.3913 13.4704 28.5853 19.6943 -2.0289 -6.0633 -8.4498 -0.5746 -2.9053 -26.2990 -27.1650 -5.8247 -1.5292 7.6002 -1.8976 -8.7956 -9.6386 -1.4870 -7.2865 -27.1795 -11.2694 -8.5669 27.1130 3.5548 0.7026 -21.6962 -2.5579 -6.0961 -29.4390 -17.6862 -16.7628 29.5817 -0.6622 7.1499 -5.8855 -0.1779 -2.8706 -33.2172 -21.1647 -22.8065 16.4538 -3.1377 0.7362 8.1272 -2.9322 9.6812 -14.6931 3.1354 0.3109 38.6232 26.6071 6.7277 1.5837 8.2841 -8.9271 1.6256 12.0294 15.3471 8.4540 -10.2258 13.2982 20.7976 9.1333 -0.7826 -6.4444 -2.5176 1.1772 5.3565 -2.7571 5.8386 15.6743 5.0416 -5.6630 -1.3743 -1.6120 0.0393 0.5120 4.6598 -7.9957 18.7455 2.1095 -9.7911 -5.1918 -1.5953 7.9978 -5.0793 6.5089 -15.1374 8.3978 -0.7966 1.3603 17.6794 -0.6484 -6.6263 -4.1916 -13.9689 30.9999 -10.6269 -2.5056 -4.6225 -0.9653 0.6383 -13.8836 2.1764 4.3542 -9.5115 4.2729 8.1648 25.3217 -3.6931 2.0217 -13.4900 -0.0000 0.0000 -0.4713 -3.9496 -14.4185 -8.7136 -2.9551 -3.7895 19.9197 7.4138 -3.0278 -7.6373 -0.0000 0.0000 -0.0000 
0.7874 116.9333 0.8883 -1.5355 -0.0720 -1.7271 0.0551 -0.0603 1.1030 -0.0208 -2.3338 1.2864 0.0296 -2.3317 1.2840 -1.3230 0.7685 -2.2803 3.7419 -1.9613 5.6575 10.9507 6.9988 1.0142 -38.3434 -29.8932 17.7342 3.1611 -6.4509 -8.1817 -7.4578 -19.9986 16.4690 13.4737 28.5865 19.6932 -2.0279 -6.0554 -8.4566 -0.5754 -2.9064 -26.3107 -26.9853 -5.8185 -1.5708 7.4701 -1.9382 -8.8250 -9.7121 -1.5011 -7.3029 -27.0689 -11.2740 -8.6117 27.0212 3.5493 0.6717 -21.7477 -2.5666 -6.1079 -29.4135 -17.7092 -16.8066 29.5442 -0.6589 7.1363 -5.9080 -0.1796 -2.8789 -33.2605 -21.1997 -22.8495 16.4538 -3.1376 0.7362 8.1279 -2.9323 9.6815 -14.6491 3.2212 0.3121 38.7283 26.6293 6.8412 1.5772 8.3243 -8.9718 1.5926 11.8958 15.1500 8.5549 -10.2345 13.3204 20.8104 9.1381 -0.7812 -6.5031 -2.5386 1.1823 4.6594 -2.9081 5.9911 16.1654 5.1705 -5.7144 -1.3188 -1.5044 0.0363 -0.0253 4.5575 -7.8777 19.4209 2.1827 -9.9708 -5.1076 -1.4984 7.9692 -5.6974 6.4062 -15.0090 8.8712 -0.8487 1.1933 17.8410 -0.6452 -6.6824 -4.0556 -14.0191 30.7802 -10.7152 -2.3733 -4.3722 -0.9584 0.6311 -13.7719 2.2018 4.1195 -9.5278 4.2529 8.2950 25.5696 -3.6284 2.0679 -13.6700 0.0000 0.0000 -0.4852 -3.9817 -14.4420 -8.6505 -3.0192 -3.7893 20.0007 7.5445 -3.0089 -7.6871 -0.0000 -0.0000 -0.0001 
0.9303 116.8552 0.9465 -1.6011 -0.0292 -1.7848 0.0265 -0.0396 1.1279 -0.0609 -2.2942 1.3376 -0.0090 -2.2922 1.3369 -1.2699 0.7545 -2.1029 3.7750 -1.9818 5.6807 11.0180 6.8009 0.9929 -38.3479 -29.6664 17.6594 3.1452 -6.4125 -8.1329 -7.3946 -19.9787 16.5365 13.4757 28.5867 19.6859 -2.0282 -6.0533 -8.4580 -0.5785 -2.9069 -26.3104 -26.7461 -5.8136 -1.6296 7.2869 -1.9954 -8.8662 -9.8145 -1.5207 -7.3257 -26.9057 -11.2762 -8.6716 26.8918 3.5416 0.6283 -21.8192 -2.5788 -6.1245 -29.3574 -17.7314 -16.8625 29.4917 -0.6543 7.1173 -5.9393 -0.1819 -2.8904 -33.2681 -21.2271 -22.9004 16.4538 -3.1376 0.7362 8.1293 -2.9326 9.6821 -14.5474 3.3808 0.3156 38.7685 26.5941 6.9539 1.5668 8.3886 -9.0433 1.5552 11.8167 15.0098 8.4767 -10.2555 13.3403 20.9574 9.1935 -0.7645 -6.4573 -2.5222 1.1783 4.0074 -3.0344 6.1085 16.6700 5.3034 -5.7661 -1.1907 -1.4026 0.0179 -0.4645 4.4798 -7.8010 20.0356 2.2512 -10.1337 -5.0092 -1.4208 7.9372 -6.1673 6.3294 -14.9278 9.2925 -0.8939 1.0444 18.0067 -0.6418 -6.7399 -3.9316 -14.0614 30.5821 -10.7943 -2.2570 -4.1510 -0.9519 0.6251 -13.6741 2.2374 3.7939 -9.6207 4.3124 8.5022 25.9695 -3.6123 2.0842 -13.9116 -0.0000 -0.0000 -0.4954 -3.9937 -14.4695 -8.6675 -3.0821 -3.7477 20.2362 7.6789 -3.0197 -7.8203 -0.0000 -0.0000 0.0000 
1.0593 116.7486 0.9991 -1.6783 0.0150 -1.8387 -0.0063 -0.0152 1.1524 -0.1035 -2.2509 1.3874 -0.0501 -2.2488 1.3885 -1.1821 0.7300 -1.9051 3.7937 -2.0018 5.6951 11.1760 6.4783 0.9608 -38.4631 -29.3370 17.5694 3.1272 -6.3687 -8.0773 -7.2942 -19.9471 16.5845 13.4761 28.5861 19.6743 -2.0329 -6.0583 -8.4549 -0.5846 -2.9066 -26.2923 -26.5116 -5.8166 -1.6954 7.1057 -2.0522 -8.9068 -9.9156 -1.5400 -7.3482 -26.7411 -11.2853 -8.7409 26.7637 3.5338 0.5853 -21.8897 -2.5908 -6.1407 -29.2927 -17.7598 -16.9308 29.4400 -0.6497 7.0985 -5.9699 -0.1842 -2.9016 -33.2601 -21.2573 -22.9678 16.4538 -3.1376 0.7362 8.1309 -2.9329 9.6828 -14.3796 3.6342 0.3203 38.7216 26.4858 7.0456 1.5527 8.4745 -9.1390 1.5145 11.8039 14.9332 8.1930 -10.2963 13.3653 21.2535 9.3048 -0.7306 -6.2917 -2.4630 1.1640 3.4378 -3.1321 6.1897 17.1576 5.4322 -5.8149 -0.9883 -1.3144 -0.0167 -0.7659 4.4308 -7.7633 20.5398 2.3087 -10.2668 -4.9038 -1.3709 7.9040 -6.4366 6.2859 -14.8912 9.6273 -0.9291 0.9258 18.1588 -0.6386 -6.7927 -3.8436 -14.0860 30.4488 -10.8472 -2.1815 -4.0061 -0.9475 0.6214 -13.6116 2.2792 3.4592 -9.7813 4.4297 8.7164 26.4937 -3.6332 2.0773 -14.2046 0.0000 0.0000 -0.4949 -3.9831 -14.5211 -8.7562 -3.1472 -3.6705 20.6003 7.8120 -3.0318 -8.0195 -0.0000 -0.0000 -0.0000 
